<svg width="32" height="32" viewBox="0 0 32 32" fill="none" xmlns="http://www.w3.org/2000/svg">
<path d="M15.9996 1.12903C7.18805 1.12903 0.0200195 8.29803 0.0200195 17.1095C0.0200195 22.6455 2.82252 27.7091 7.51699 30.6535C7.98399 30.9495 8.60099 30.806 8.89502 30.338C9.18905 29.87 9.04752 29.253 8.57952 28.9601C6.88902 27.8991 5.48452 26.5211 4.41002 24.9326L5.45852 24.3271C5.93699 24.0506 6.10102 23.4396 5.82452 22.9611C5.54702 22.4816 4.93502 22.3186 4.45852 22.5951L3.40852 23.2011C2.64602 21.6226 2.18049 19.8951 2.05599 18.0941H3.16899C3.72149 18.0941 4.16899 17.6466 4.16899 17.0941C4.16899 16.5416 3.72149 16.0941 3.16899 16.0941H2.06099C2.19349 14.2601 2.67899 12.5221 3.45349 10.9506L4.45849 11.5306C4.61008 11.6185 4.78228 11.6648 4.95755 11.6646C5.30302 11.6646 5.63902 11.4851 5.82452 11.1646C6.10099 10.6861 5.93702 10.0746 5.45852 9.79853L4.46352 9.22453C5.46702 7.76103 6.74052 6.49653 8.21302 5.50506L8.77602 6.48006C8.96149 6.80156 9.29749 6.98006 9.64299 6.98006C9.81825 6.98025 9.99043 6.93402 10.142 6.84606C10.6205 6.56956 10.7845 5.95856 10.508 5.48006L9.94699 4.50906C11.4885 3.76556 13.187 3.30106 14.9775 3.17106V4.41706C14.9775 4.96956 15.425 5.41706 15.9775 5.41706C16.53 5.41706 16.9775 4.96956 16.9775 4.41706V3.16706C18.8085 3.29456 20.544 3.77303 22.1145 4.5405L21.572 5.47953C21.2955 5.958 21.4595 6.56953 21.938 6.84553C22.0896 6.93349 22.2618 6.97973 22.437 6.97953C22.7825 6.97953 23.1185 6.80103 23.304 6.47953L23.844 5.54403C25.304 6.53808 26.5641 7.7976 27.559 9.25703L26.6225 9.79803C26.144 10.0745 25.98 10.6855 26.2565 11.164C26.442 11.4855 26.778 11.664 27.1235 11.664C27.2935 11.664 27.4655 11.621 27.6225 11.53L28.564 10.9865C29.3325 12.5575 29.8126 14.2935 29.9405 16.125H28.8426C28.2901 16.125 27.8426 16.5725 27.8426 17.125C27.8426 17.6775 28.2901 18.125 28.8426 18.125H29.9401C29.8136 19.9025 29.3591 21.6075 28.6121 23.166L27.6221 22.5945C27.1446 22.318 26.5311 22.483 26.2561 22.9606C25.9796 23.439 26.1436 24.0506 26.6221 24.3266L27.6151 24.9C26.5181 26.5325 25.0701 27.9436 23.3226 29.0195C22.8521 29.3095 22.7066 29.926 22.9956 30.3955C23.1851 30.702 23.5121 30.871 23.8481 30.871C24.033 30.871 24.2143 30.8196 24.3716 30.7225C29.1361 27.788 31.9801 22.698 31.9801 17.109C31.9801 8.29803 24.8111 1.12903 15.9996 1.12903H15.9996ZM23.3785 13.9915C23.8565 13.715 24.0205 13.1041 23.7445 12.6256C23.4685 12.1476 22.8565 11.9836 22.3785 12.2601L16.9465 15.3961C16.6565 15.2321 16.326 15.1306 15.969 15.1306C14.8665 15.1306 13.974 16.0241 13.974 17.1246C13.974 18.2261 14.867 19.1196 15.969 19.1196C17.0715 19.1196 17.964 18.2261 17.964 17.1246C17.964 17.1226 17.9635 17.1201 17.9635 17.118L23.3785 13.9915Z" fill="#00B4DD"/>
</svg>
