<svg width="32" height="32" viewBox="0 0 32 32" fill="none" xmlns="http://www.w3.org/2000/svg">
<path d="M15.9996 1.12891C7.18805 1.12891 0.0200195 8.29791 0.0200195 17.1094C0.0200195 22.6454 2.82252 27.7089 7.51699 30.6534C7.98399 30.9494 8.60099 30.8059 8.89502 30.3379C9.18905 29.8699 9.04752 29.2529 8.57952 28.9599C6.88902 27.8989 5.48452 26.5209 4.41002 24.9324L5.45852 24.3269C5.93699 24.0504 6.10102 23.4394 5.82452 22.961C5.54702 22.4815 4.93502 22.3185 4.45852 22.595L3.40852 23.2009C2.64602 21.6225 2.18049 19.8949 2.05599 18.0939H3.16899C3.72149 18.0939 4.16899 17.6464 4.16899 17.0939C4.16899 16.5414 3.72149 16.0939 3.16899 16.0939H2.06099C2.19349 14.26 2.67899 12.5219 3.45349 10.9504L4.45849 11.5304C4.61008 11.6184 4.78228 11.6646 4.95755 11.6644C5.30302 11.6644 5.63902 11.4849 5.82452 11.1644C6.10099 10.6859 5.93702 10.0744 5.45852 9.79841L4.46352 9.22441C5.46702 7.76091 6.74052 6.49641 8.21302 5.50494L8.77602 6.47994C8.96149 6.80144 9.29749 6.97994 9.64299 6.97994C9.81825 6.98013 9.99043 6.93389 10.142 6.84594C10.6205 6.56944 10.7845 5.95844 10.508 5.47994L9.94699 4.50894C11.4885 3.76544 13.187 3.30094 14.9775 3.17094V4.41694C14.9775 4.96944 15.425 5.41694 15.9775 5.41694C16.53 5.41694 16.9775 4.96944 16.9775 4.41694V3.16694C18.8085 3.29444 20.544 3.77291 22.1145 4.54037L21.572 5.47941C21.2955 5.95788 21.4595 6.56941 21.938 6.84541C22.0896 6.93337 22.2618 6.97961 22.437 6.97941C22.7825 6.97941 23.1185 6.80091 23.304 6.47941L23.844 5.54391C25.304 6.53796 26.5641 7.79748 27.559 9.25691L26.6225 9.79791C26.144 10.0744 25.98 10.6854 26.2565 11.1638C26.442 11.4854 26.778 11.6638 27.1235 11.6638C27.2935 11.6638 27.4655 11.6209 27.6225 11.5299L28.564 10.9864C29.3325 12.5574 29.8126 14.2933 29.9405 16.1249H28.8426C28.2901 16.1249 27.8426 16.5724 27.8426 17.1249C27.8426 17.6774 28.2901 18.1249 28.8426 18.1249H29.9401C29.8136 19.9024 29.3591 21.6074 28.6121 23.1659L27.6221 22.5944C27.1446 22.3179 26.5311 22.4829 26.2561 22.9604C25.9796 23.4389 26.1436 24.0504 26.6221 24.3264L27.6151 24.8999C26.5181 26.5324 25.0701 27.9434 23.3226 29.0194C22.8521 29.3094 22.7066 29.9259 22.9956 30.3954C23.1851 30.7019 23.5121 30.8709 23.8481 30.8709C24.033 30.8709 24.2143 30.8195 24.3716 30.7224C29.1361 27.7879 31.9801 22.6979 31.9801 17.1089C31.9801 8.29791 24.8111 1.12891 15.9996 1.12891H15.9996ZM23.3785 13.9914C23.8565 13.7149 24.0205 13.104 23.7445 12.6255C23.4685 12.1475 22.8565 11.9835 22.3785 12.26L16.9465 15.396C16.6565 15.232 16.326 15.1305 15.969 15.1305C14.8665 15.1305 13.974 16.0239 13.974 17.1244C13.974 18.2259 14.867 19.1194 15.969 19.1194C17.0715 19.1194 17.964 18.2259 17.964 17.1244C17.964 17.1224 17.9635 17.1199 17.9635 17.1179L23.3785 13.9914Z" fill="#D62222"/>
</svg>
