<svg width="20" height="20" viewBox="0 0 20 20" fill="none" xmlns="http://www.w3.org/2000/svg">
<path d="M5.12105 0.722637C5.85152 1.73045 6.72266 3.03117 7.73047 4.62104C7.98437 5.05072 7.94531 5.56635 7.61719 6.17182C7.49219 6.42572 7.17578 7.00385 6.67187 7.914C7.22656 8.69525 8.07031 9.65619 9.20703 10.789C10.3437 11.9218 11.2891 12.7695 12.043 13.3242C12.9492 12.7929 13.5313 12.4687 13.7852 12.3398C14.1133 12.164 14.4297 12.0742 14.7305 12.0742C14.9571 12.0742 15.1602 12.125 15.336 12.2265C16.4961 12.9336 17.8086 13.8046 19.2696 14.8359C19.5469 15.039 19.7031 15.3164 19.7422 15.6679C19.7813 16.0234 19.6719 16.3984 19.4219 16.8047C19.2969 16.9804 19.0938 17.2383 18.8164 17.582C18.5391 17.9219 18.1211 18.3515 17.5664 18.8672C17.0117 19.3828 16.5586 19.6446 16.2031 19.6446H16.1641C13.4961 19.5391 10.207 17.5391 6.3125 13.6445C2.41406 9.74609 0.414062 6.46094 0.3125 3.78906C0.3125 3.4375 0.570312 2.97656 1.08984 2.40625C1.60547 1.83984 2.03125 1.42969 2.35545 1.17578C2.68357 0.925781 2.96092 0.722656 3.18748 0.570313C3.46482 0.367188 3.78123 0.269531 4.13279 0.269531C4.56639 0.269531 4.89061 0.421875 5.12107 0.722656L5.12105 0.722637ZM3.87109 1.51557C3.33984 1.89447 2.84369 2.32021 2.37494 2.78506C1.9101 3.25381 1.63666 3.59756 1.56244 3.82412C1.664 6.17178 3.5351 9.16006 7.17963 12.7929C10.8242 16.4257 13.8203 18.3046 16.164 18.4296C16.3671 18.3554 16.6992 18.078 17.1679 17.5976C17.6367 17.1171 18.0585 16.6132 18.4335 16.0859C18.5078 15.9843 18.5351 15.8984 18.5078 15.8202C16.996 14.7616 15.7343 13.9179 14.7226 13.2851C14.621 13.2851 14.496 13.3241 14.3437 13.3983C14.1171 13.5233 13.5507 13.8397 12.6406 14.3437L11.996 14.7226L11.3515 14.3046C10.5195 13.7265 9.51168 12.828 8.32418 11.6171C7.14059 10.4335 6.25777 9.42178 5.67574 8.58975L5.22262 7.98428L5.60152 7.30461C6.10543 6.39836 6.42184 5.82805 6.54684 5.60148C6.62105 5.44914 6.66012 5.32414 6.66012 5.22258C5.76168 3.78896 4.92967 2.52727 4.17188 1.44133H4.13281C4.03516 1.44133 3.94531 1.46867 3.87109 1.51555V1.51557Z" fill="#00C382"/>
</svg>
