<svg width="32" height="32" viewBox="0 0 32 32" fill="none" xmlns="http://www.w3.org/2000/svg">
<g clip-path="url(#clip0_614_14)">
<path d="M24.9795 30.009H1.97949V5.00899H16.0295L18.0515 3.06099L17.9995 3.00899H1.97949C0.874992 3.00899 -0.0205078 3.90449 -0.0205078 5.00899V30.009C-0.0205078 31.1135 0.874992 32.009 1.97949 32.009H24.9795C26.084 32.009 26.9795 31.1135 26.9795 30.009V15.3635L24.9795 17.2725V30.009ZM30.4445 1.29499C29.542 0.429986 28.546 -0.00854492 27.4835 -0.00854492C25.8205 -0.00854492 24.6075 1.06546 24.2775 1.39449C23.8095 1.85649 10.5535 15.093 10.5535 15.093C10.4495 15.199 10.3735 15.3285 10.3345 15.4725C9.97552 16.799 8.17602 22.691 8.15802 22.7495C8.06502 23.0515 8.14802 23.3805 8.37052 23.6C8.44801 23.6778 8.54013 23.7395 8.64156 23.7816C8.743 23.8236 8.85175 23.8452 8.96155 23.845C9.04755 23.845 9.13405 23.8325 9.21902 23.806C9.28002 23.7855 15.3595 21.8195 16.36 21.521C16.492 21.482 16.6115 21.4105 16.7105 21.314C17.342 20.691 29.5265 8.69552 30.5125 7.67702C31.532 6.62502 32.039 5.53149 32.0195 4.42399C32.001 3.32999 31.469 2.27699 30.4445 1.29499V1.29499ZM29.076 6.28496C28.5195 6.85896 24.162 11.165 16.1245 19.083L15.5095 19.6895C14.588 19.9745 12.3815 20.6835 10.7135 21.2215C11.2505 19.448 11.895 17.3055 12.1825 16.292C13.9 14.577 25.257 3.23749 25.6884 2.81149C25.7725 2.72746 26.539 1.99095 27.4834 1.99095C28.0195 1.99095 28.536 2.23546 29.0605 2.73846C29.6875 3.33996 30.0105 3.91795 30.0195 4.45795C30.0295 5.01395 29.712 5.62846 29.076 6.28496Z" fill="#D62222"/>
</g>
<defs>
<clipPath id="clip0_614_14">
<rect width="32" height="32" fill="white"/>
</clipPath>
</defs>
</svg>
