<svg width="32" height="32" viewBox="0 0 32 32" fill="none" xmlns="http://www.w3.org/2000/svg">
<g clip-path="url(#clip0_613_6)">
<path d="M32.0431 20.3684C32.0126 19.9359 30.3866 10.3899 30.1322 8.86138C30.1076 8.71488 30.0881 8.55888 30.0667 8.39438C29.8702 6.85835 29.5032 3.99988 24.8956 3.99988C24.3431 3.99988 23.8956 4.44738 23.8956 4.99988C23.8956 5.55238 24.3431 5.99988 24.8956 5.99988C27.7431 5.99988 27.8936 7.16888 28.0831 8.64938C28.1077 8.83888 28.1312 9.02038 28.1592 9.18938C28.2762 9.89338 28.8062 12.6944 29.2637 15.4714C28.0902 14.5769 26.6297 14.0399 25.0412 14.0399C22.4897 14.0399 20.2187 15.4134 18.9702 17.4574C18.3697 17.2304 17.3507 16.9469 15.9892 16.9469C14.6471 16.9469 13.6606 17.2324 13.0507 17.4809C11.8367 15.4239 9.60366 14.0394 7.04219 14.0394C5.37769 14.0394 3.83172 14.6244 2.60969 15.5969C3.07319 12.7849 3.62219 9.90838 3.74119 9.18988C3.76969 9.02088 3.79319 8.83941 3.81716 8.64988C4.00669 7.16938 4.15719 6.00038 7.00469 6.00038C7.55719 6.00038 8.00469 5.55288 8.00469 5.00038C8.00469 4.44788 7.55719 4.00038 7.00469 4.00038C2.39719 4.00038 2.03016 6.85888 1.83366 8.39488C1.81216 8.55888 1.79266 8.71538 1.76813 8.86188C1.51313 10.3904 -0.0133423 19.8734 -0.0433423 20.3064C-0.0503423 20.4029 -0.0388423 20.4954 -0.0198111 20.5859C-0.0293111 20.7304 -0.0423111 20.8739 -0.0423111 21.0204C-0.0423111 24.8749 3.18719 27.9999 7.04169 27.9999C10.8962 27.9999 14.0212 24.8749 14.0212 21.0204C14.0212 20.4374 13.9417 19.8744 13.8072 19.3334C14.2172 19.1684 14.9582 18.9479 15.9887 18.9479C16.9942 18.9479 17.7532 19.1489 18.1857 19.3019C18.0417 19.8529 17.9567 20.4259 17.9567 21.0204C17.9567 24.8749 21.1862 27.9999 25.0407 27.9999C28.8952 27.9999 32.0202 24.8749 32.0202 21.0204C32.0202 20.9159 32.0092 20.8139 32.0047 20.7104C32.0352 20.6014 32.0522 20.4874 32.0432 20.3684H32.0431ZM7.042 25.9994C4.286 25.9994 1.958 23.7189 1.958 21.0199C1.958 18.3209 4.286 16.0404 7.042 16.0404C9.788 16.0404 12.0215 18.2739 12.0215 21.0199C12.0215 23.7659 9.788 25.9994 7.042 25.9994ZM25.041 25.9994C22.285 25.9994 19.957 23.7188 19.957 21.0198C19.957 18.3208 22.285 16.0403 25.041 16.0403C27.416 16.0403 29.4045 17.7118 29.899 19.9398C29.9195 20.1438 29.9365 20.3358 29.9495 20.5113C29.9555 20.5953 29.978 20.6743 30.007 20.7508C30.012 20.8408 30.0205 20.9293 30.0205 21.0203C30.0205 23.7659 27.787 25.9993 25.041 25.9993V25.9994Z" fill="#00B4DD"/>
</g>
<defs>
<clipPath id="clip0_613_6">
<rect width="32" height="32" fill="white"/>
</clipPath>
</defs>
</svg>
