<svg width="32" height="32" viewBox="0 0 32 32" fill="none" xmlns="http://www.w3.org/2000/svg">
<path d="M28.3735 4.51499C28.0032 4.16932 27.5156 3.97703 27.009 3.97696C26.963 3.97696 26.9171 3.97899 26.8715 3.98196C26.843 3.98399 26.522 4.00349 26.019 4.00349C25.186 4.00349 23.56 3.94699 22.02 3.56799C20.0305 3.07952 17.735 0.81299 17.067 0.36599C16.738 0.146133 16.3512 0.0288684 15.9555 0.029053C15.5603 0.0292126 15.174 0.146104 14.845 0.365053C14.764 0.419553 12.3605 2.99105 10.009 3.56805C8.46999 3.94702 6.81249 4.00352 5.98049 4.00352C5.47749 4.00352 5.15646 3.98402 5.12499 3.98199C5.08105 3.97883 5.03701 3.97716 4.99296 3.97699C4.48505 3.9773 3.99616 4.17028 3.62499 4.51699C3.22046 4.89499 2.98999 5.42349 2.98999 5.97699V10.978C2.98999 29.4665 15.0875 31.847 15.6015 31.94C15.7182 31.9607 15.8365 31.9712 15.955 31.9715C16.073 31.9715 16.1925 31.961 16.3085 31.94C16.822 31.847 29.0085 29.4665 29.0085 10.978V5.97699C29.0089 5.70273 28.9527 5.43134 28.8434 5.17978C28.7342 4.92823 28.5742 4.70191 28.3735 4.51499V4.51499ZM27.0095 10.978C27.0095 28.0065 15.956 29.971 15.956 29.971C15.956 29.971 4.99096 28.006 4.99096 10.978V5.97702C4.99096 5.97702 5.36896 6.00352 5.98096 6.00352C7.02996 6.00352 8.79446 5.92652 10.486 5.51052C13.2555 4.83102 15.9555 2.02905 15.9555 2.02905C15.9555 2.02905 18.776 4.83105 21.5425 5.51055C23.236 5.92655 24.97 6.00355 26.019 6.00355C26.6305 6.00355 27.009 5.97705 27.009 5.97705C27.009 5.97705 27.0095 6.61305 27.0095 10.978H27.0095V10.978ZM20.2375 10.82C19.847 10.4295 19.2134 10.4295 18.8234 10.82L15.9949 13.6485L13.1665 10.82C12.7759 10.4295 12.1424 10.4295 11.7519 10.82C11.3614 11.2105 11.3614 11.8441 11.7519 12.2341L14.5804 15.0626L11.7519 17.891C11.3614 18.281 11.3614 18.9146 11.7519 19.3051C12.1424 19.6956 12.776 19.6956 13.1665 19.3051L15.9949 16.4766L18.8234 19.3051C19.2134 19.6956 19.847 19.6956 20.2375 19.3051C20.628 18.9145 20.628 18.2811 20.2375 17.891L17.409 15.0626L20.2375 12.2341C20.628 11.8441 20.628 11.2105 20.2375 10.82H20.2375Z" fill="#00C382"/>
</svg>
