<svg width="20" height="20" viewBox="0 0 20 20" fill="none" xmlns="http://www.w3.org/2000/svg">
<g clip-path="url(#clip0_635_3242)">
<path d="M19.9895 4.53125C20.0091 4.41013 19.9923 4.2859 19.941 4.17439C19.7836 3.48219 19.2832 3.125 18.4376 3.125H2.18762C1.44387 3.125 0.642603 3.39844 0.24856 3.935C0.214478 3.96094 0.181978 3.99031 0.152622 4.02438C0.026665 4.16969 -0.0173975 4.35658 0.0107471 4.53283C0.00512207 4.58346 0.00012207 4.63439 0.00012207 4.68752V14.6875C0.00012207 15.7231 1.15231 16.875 2.18762 16.875H18.4376C19.4732 16.875 20.0001 15.7231 20.0001 14.6875V4.68752C20.0001 4.63221 19.9929 4.58375 19.9895 4.53125H19.9895ZM2.18754 4.375L18.4376 4.37498H18.446L10.0001 11.1065L1.58819 4.40248C1.77944 4.36717 2.01475 4.375 2.18752 4.375H2.18754ZM18.4376 15.625H2.18758C1.8429 15.625 1.25008 15.0325 1.25008 14.6875V5.73342L9.59071 12.4062C9.70821 12.5078 9.85413 12.5584 10.0001 12.5584C10.1505 12.5586 10.2959 12.5045 10.4098 12.4062L18.7501 5.73373V14.6875C18.7501 15.0325 18.7826 15.625 18.4376 15.625V15.625Z" fill="#00B4DD"/>
</g>
<defs>
<clipPath id="clip0_635_3242">
<rect width="20" height="20" fill="white"/>
</clipPath>
</defs>
</svg>
