<svg width="32" height="32" viewBox="0 0 32 32" fill="none" xmlns="http://www.w3.org/2000/svg">
<g clip-path="url(#clip0_614_32)">
<path d="M30.0005 5.9834H22.013V4.0459C22.013 2.3914 20.6675 1.0459 19.013 1.0459H12.9995C11.345 1.0459 9.99951 2.3914 9.99951 4.0459V5.9834H2.00051C0.901012 5.9834 0.000511719 6.8839 0.000511719 7.9834V14.9914H-0.000488281V16.9914H0.000511719V28.9544C0.000511719 30.0539 0.901012 30.9544 2.00051 30.9544H30.0005C31.1 30.9544 32.0005 30.0539 32.0005 28.9544V7.9834C32.0005 6.8839 31.1 5.9834 30.0005 5.9834H30.0005V5.9834ZM11.9995 4.0459C11.9995 3.4939 12.4475 3.0459 12.9995 3.0459H19.013C19.565 3.0459 20.013 3.4939 20.013 4.0459V5.9834H11.9995V4.0459ZM2.00054 7.9834H30.0005V14.9914H18.989V13.9679C18.989 12.8654 18.0915 11.9679 16.989 11.9679H14.997C13.8945 11.9679 12.997 12.8654 12.997 13.9679V14.9914H2.00057V7.9834H2.00054ZM16.9905 19.0039H14.9965V13.9679H16.9885L16.9905 19.0039ZM2.00051 28.9539V16.9909H12.9965V19.0034C12.9965 20.1059 13.894 21.0034 14.9965 21.0034H16.9885C18.091 21.0034 18.9885 20.1059 18.9885 19.0034V16.9909H30V28.9539H2.00051V28.9539Z" fill="#00B4DD"/>
</g>
<defs>
<clipPath id="clip0_614_32">
<rect width="32" height="32" fill="white"/>
</clipPath>
</defs>
</svg>
