<svg width="20" height="20" viewBox="0 0 20 20" fill="none" xmlns="http://www.w3.org/2000/svg">
<g clip-path="url(#clip0_635_3238)">
<path d="M10.0716 -0.00708008C5.97187 -0.00708008 2.5 3.48448 2.5 7.62073C2.5 11.952 6.52406 16.3814 9.23094 19.4945C9.24125 19.507 9.67877 19.9929 10.2178 19.9929H10.2656C10.8047 19.9929 11.2391 19.507 11.25 19.4945C13.7903 16.5742 17.5 11.7592 17.5 7.62073C17.5 3.48448 14.7919 -0.00708008 10.0716 -0.00708008ZM10.3222 18.656C10.3003 18.6779 10.2684 18.7023 10.2403 18.7226C10.2115 18.7029 10.1803 18.6779 10.1572 18.6561L9.83029 18.2801C7.26406 15.336 3.75 11.3045 3.75 7.62073C3.75 4.16355 6.645 1.24261 10.0716 1.24261C14.3397 1.24261 16.25 4.44573 16.25 7.62073C16.25 10.4173 14.2553 14.1304 10.3222 18.656ZM10.0219 3.77761C7.95092 3.77761 6.27186 5.45667 6.27186 7.52761C6.27186 9.59854 7.95092 11.2776 10.0219 11.2776C12.0928 11.2776 13.7719 9.59854 13.7719 7.52761C13.7719 5.45667 12.0928 3.77761 10.0219 3.77761ZM10.0219 10.0276C8.64342 10.0276 7.49309 8.87886 7.49309 7.50011C7.49309 6.12167 8.61465 5.00011 9.99309 5.00011C11.3725 5.00011 12.4931 6.12167 12.4931 7.50011C12.4937 8.87886 11.4012 10.0276 10.0219 10.0276V10.0276Z" fill="#D62222"/>
</g>
<defs>
<clipPath id="clip0_635_3238">
<rect width="20" height="20" fill="white"/>
</clipPath>
</defs>
</svg>
