<svg width="26" height="26" viewBox="0 0 26 26" fill="none" xmlns="http://www.w3.org/2000/svg">
<g clip-path="url(#clip0_643_3262)">
<path d="M25.1582 17.6796V11.1251L25.5669 10.9094C25.8326 10.7713 25.9999 10.4974 26.0032 10.1977C26.0064 9.89863 25.8443 9.62156 25.5819 9.47737L13.3578 2.93675C13.1133 2.80268 12.8175 2.80347 12.5713 2.93916L0.414301 9.48791C0.155495 9.63215 -0.00454243 9.90594 -0.00291743 10.2029C-0.00129243 10.4999 0.16202 10.7717 0.424077 10.9131L5.76586 13.7564C5.69883 13.8746 5.65739 14.0095 5.65739 14.155V21.0303C5.65742 21.145 5.68168 21.2583 5.72859 21.3629C5.7755 21.4675 5.84399 21.561 5.92958 21.6373C6.10591 21.7937 7.79429 23.1631 12.9565 23.1631C18.1004 23.1631 19.8343 21.8688 20.0151 21.7214C20.204 21.5674 20.3133 21.3366 20.3133 21.0921V14.0404C20.3133 13.9262 20.2893 13.8177 20.2471 13.7194L23.5332 11.9835V17.684C23.0514 17.966 22.7248 18.4831 22.7248 19.0811C22.7248 19.9785 23.4524 20.7061 24.3498 20.7061C25.2472 20.7061 25.9748 19.9785 25.9748 19.0811C25.9748 18.4794 25.6437 17.9603 25.1582 17.6796H25.1582ZM18.6882 20.6265C18.0496 20.9336 16.3596 21.5381 12.9565 21.5381C9.53177 21.5381 7.87996 20.8946 7.28236 20.5851V14.564L12.5587 17.3728C12.6771 17.4369 12.8097 17.4704 12.9443 17.4703C13.0754 17.4705 13.2045 17.4385 13.3205 17.3773L18.6882 14.5421V20.6265V20.6265ZM12.9508 15.7373L2.49999 10.1879L12.9691 4.57721L23.4706 10.1717L12.9508 15.7373Z" fill="#00B4DD"/>
</g>
<defs>
<clipPath id="clip0_643_3262">
<rect width="26" height="26" fill="white"/>
</clipPath>
</defs>
</svg>
