<svg width="40" height="40" viewBox="0 0 40 40" fill="none" xmlns="http://www.w3.org/2000/svg">
<path d="M29.8057 10.1561C28.0625 5.52989 24.3151 2.59985 18.6551 2.59985C11.4526 2.59985 6.41321 7.94798 5.98012 14.9255C2.507 16.0361 0.00012207 19.5786 0.00012207 23.5911C0.00012207 28.503 3.86137 32.6524 8.43071 32.6524H9.54196C10.232 32.6524 10.792 32.093 10.792 31.4024C10.792 30.7117 10.232 30.1524 9.54196 30.1524H8.43071C5.21571 30.1524 2.46071 27.148 2.46071 23.5911C2.46071 20.448 4.66446 17.6124 7.42883 17.1374L8.56321 16.9417L8.46196 15.7955L8.45258 15.7811C8.45321 9.69235 12.4607 5.09985 18.6551 5.09985C23.6201 5.09985 26.4095 7.5461 27.7001 11.7186L27.967 12.5792L28.8682 12.5986C33.5114 12.6961 37.5826 16.4636 37.5826 21.1449C37.5826 25.4049 34.7595 30.1524 30.4845 30.1524H30.1288C29.4388 30.1524 28.8788 30.7118 28.8788 31.4024C28.8788 32.093 29.4388 32.6524 30.1288 32.6524V32.6486C36.3788 32.4836 39.982 26.5124 39.982 21.1449C39.9807 15.3743 35.4588 10.7643 29.8057 10.1561H29.8057ZM25.2476 30.2917C24.8982 29.9267 24.3332 29.9266 23.9845 30.2916L21.2351 33.3248V20.741C21.2351 20.051 20.6751 19.491 19.9851 19.491C19.2951 19.491 18.7351 20.051 18.7351 20.741V33.336L16.0745 30.3698C15.7251 30.0048 15.1589 29.9267 14.8101 30.2917L14.4951 30.4642C14.1457 30.8304 14.1457 31.4204 14.4951 31.7854L19.007 36.7754C19.0132 36.7816 19.0145 36.7898 19.0201 36.796L19.3363 37.1266C19.512 37.3098 19.7413 37.4005 19.9726 37.3992C20.202 37.4004 20.4326 37.3098 20.6064 37.1266L20.9226 36.796C20.9288 36.7898 20.932 36.7829 20.937 36.7754L25.5632 31.7073C25.9126 31.3423 25.9126 30.9086 25.5632 30.5424L25.2476 30.2917Z" fill="#00B4DD"/>
</svg>
