<svg width="32" height="32" viewBox="0 0 32 32" fill="none" xmlns="http://www.w3.org/2000/svg">
<g clip-path="url(#clip0_616_16)">
<path d="M0.682495 9.43143L15.5291 17.5164C15.6759 17.5963 15.8404 17.6383 16.0076 17.6384C16.1732 17.6384 16.3363 17.5971 16.4821 17.5184L31.4851 9.43342C31.8121 9.25746 32.0155 8.91392 32.0105 8.54192C32.0081 8.35934 31.9559 8.18088 31.8595 8.0258C31.7631 7.87072 31.6262 7.7449 31.4635 7.66192L16.616 0.121925C16.3331 -0.0215752 15.999 -0.0225752 15.7135 0.119925L0.712026 7.65992C0.380026 7.82689 0.167026 8.16492 0.161026 8.53692C0.155026 8.90892 0.356526 9.25393 0.682495 9.43143V9.43143ZM16.161 2.13389L28.8535 8.57986L16.0105 15.5009L3.3175 8.58886L16.161 2.13389ZM31.2919 15.0099L28.3239 13.5028L26.1814 14.6583L28.6814 15.9278L15.8389 22.8483L3.14546 15.9363L5.81143 14.5963L3.67493 13.4323L0.539932 15.0073C0.207933 15.1743 -0.00506752 15.5123 -0.0110988 15.8844C-0.01713 16.2564 0.184401 16.6014 0.510401 16.7789L15.3569 24.8639C15.5037 24.9438 15.6682 24.9857 15.8354 24.9858C16.0011 24.9858 16.1641 24.9445 16.3099 24.8658L31.3129 16.7808C31.6399 16.6049 31.8434 16.2613 31.8384 15.8893C31.8362 15.7068 31.7842 15.5284 31.6878 15.3734C31.5915 15.2183 31.4546 15.0926 31.2919 15.0099H31.2919ZM31.2922 22.0098L28.4807 20.6278L26.3382 21.7833L28.6822 22.9278L15.8392 29.8483L3.14575 22.9363L5.62424 21.8153L3.48775 20.6513L0.540245 22.0078C0.208182 22.1748 -0.00481752 22.5128 -0.0108175 22.8849C-0.0168175 23.2569 0.184651 23.6019 0.510651 23.7794L15.3572 31.8644C15.504 31.9443 15.6685 31.9862 15.8357 31.9863C16.0013 31.9863 16.1644 31.945 16.3102 31.8663L31.3132 23.7813C31.6402 23.6053 31.8436 23.2618 31.8386 22.8898C31.8366 22.7072 31.7846 22.5287 31.6882 22.3736C31.5919 22.2184 31.4549 22.0926 31.2922 22.0098H31.2922Z" fill="#00C382"/>
</g>
<defs>
<clipPath id="clip0_616_16">
<rect width="32" height="32" fill="white"/>
</clipPath>
</defs>
</svg>
