<svg width="32" height="32" viewBox="0 0 32 32" fill="none" xmlns="http://www.w3.org/2000/svg">
<g clip-path="url(#clip0_616_4)">
<path d="M6.55255 27.6019C5.92405 28.9084 5.52749 29.779 2.03102 29.906C2.13152 26.532 2.77452 26.17 4.06202 25.5285C4.60252 25.259 5.27552 24.924 6.00305 24.3645L4.78555 22.81C4.21055 23.2515 3.68152 23.484 3.17002 23.7385C1.02505 24.808 0.0141171 25.8614 0.0141171 30.8839L0.0310859 31.9059L1.01409 31.8839C6.31509 31.8839 7.30559 30.6864 8.29859 28.6239C8.51609 28.1719 8.63709 27.8664 9.00359 27.2574L7.52059 25.9104C7.07609 26.5169 6.79859 27.0939 6.55259 27.6019H6.55255ZM22.03 5.89543C19.8185 5.89543 18.019 7.6949 18.019 9.9059C18.019 12.1179 19.819 13.9169 22.03 13.9169C24.241 13.9169 26.0405 12.1174 26.0405 9.90593C26.0405 7.69493 24.2405 5.89543 22.03 5.89543ZM22.03 11.9084C20.926 11.9084 20.0275 11.0099 20.0275 9.9059C20.0275 8.80237 20.926 7.9034 22.03 7.9034C23.134 7.9034 24.0325 8.80237 24.0325 9.9059C24.032 11.0104 23.134 11.9084 22.03 11.9084ZM31.9932 0.9159C31.9627 0.4169 31.5672 0.0168057 31.0682 -0.0201943C31.0682 -0.0201943 25.4717 -0.428194 20.0877 1.58231C18.1207 2.31681 16.5017 3.48034 14.9907 5.24284C13.7307 6.71237 12.4787 9.36884 11.3737 11.5743C10.9467 12.4258 10.5387 13.2404 10.1927 13.8624H4.62974C4.48836 13.8624 4.34859 13.8924 4.21966 13.9504C4.09072 14.0084 3.97555 14.0931 3.88174 14.1989L0.216211 18.1719C0.100991 18.3018 0.0215845 18.4594 -0.0141912 18.6293C-0.049967 18.7992 -0.0408784 18.9755 0.0121796 19.1408C0.11968 19.4779 0.39718 19.7329 0.741211 19.8108L6.70821 21.1754C7.11468 21.6774 7.79218 22.4284 8.87621 23.6314L11.1367 26.1374L12.3537 31.2849C12.3932 31.4518 12.4749 31.6058 12.5911 31.732C12.7073 31.8582 12.8541 31.9523 13.0172 32.0054C13.1182 32.0374 13.2227 32.0544 13.3267 32.0544C13.5655 32.0545 13.7965 31.969 13.9777 31.8134L17.6827 28.1279C17.7923 28.0341 17.8802 27.9177 17.9406 27.7867C18.0009 27.6557 18.0321 27.5131 18.0322 27.3689V22.2089C18.5302 21.8994 19.4131 21.4229 20.2441 20.9579C22.5086 19.6924 25.8886 18.1169 27.2901 16.8709C29.2637 15.1169 29.9826 13.8309 30.6886 11.9299C32.3671 7.4084 32.0101 1.17893 31.9931 0.915931L31.9932 0.9159ZM28.8126 11.2333C28.1966 12.8918 27.6386 13.8842 25.9611 15.3757C24.7216 16.4767 21.3321 18.0577 19.2676 19.2123C17.7266 20.0738 16.8036 20.5768 16.3991 20.9078C16.2842 21.0015 16.1915 21.1196 16.128 21.2536C16.0644 21.3875 16.0315 21.534 16.0316 21.6823V26.9088L13.9216 29.2273L13.0231 25.4273C12.9843 25.2637 12.9048 25.1125 12.7921 24.9878C10.9531 22.9498 8.17509 19.8688 7.96205 19.6243C7.82151 19.4538 7.62847 19.3346 7.41305 19.2853L2.83205 18.2373L5.07905 15.8623H10.7676C10.9385 15.8623 11.1065 15.8186 11.2557 15.7351C11.4048 15.6517 11.5301 15.5314 11.6196 15.3858C12.0596 14.6693 12.5701 13.6503 13.1616 12.4703C14.1631 10.4718 15.4091 7.82831 16.5091 6.54431C17.8086 5.02781 19.1286 4.07527 20.7871 3.45531C24.4776 2.07631 28.2861 1.93131 30.0271 1.94427C30.0596 3.78827 29.9901 8.06377 28.8126 11.2333V11.2333Z" fill="#00C382"/>
</g>
<defs>
<clipPath id="clip0_616_4">
<rect width="32" height="32" fill="white"/>
</clipPath>
</defs>
</svg>
