<svg width="26" height="26" viewBox="0 0 26 26" fill="none" xmlns="http://www.w3.org/2000/svg">
<g clip-path="url(#clip0_643_3274)">
<path d="M25.1582 17.6797V11.1252L25.5669 10.9095C25.8326 10.7714 25.9999 10.4976 26.0032 10.1978C26.0064 9.89875 25.8443 9.62169 25.5819 9.47749L13.3578 2.93687C13.1133 2.80281 12.8175 2.80359 12.5713 2.93928L0.414301 9.48803C0.155495 9.63227 -0.00454243 9.90606 -0.00291743 10.2031C-0.00129243 10.5 0.16202 10.7718 0.424077 10.9132L5.76586 13.7566C5.69883 13.8748 5.65739 14.0096 5.65739 14.1551V21.0305C5.65742 21.1451 5.68168 21.2584 5.72859 21.363C5.7755 21.4676 5.84399 21.5611 5.92958 21.6374C6.10591 21.7938 7.79429 23.1633 12.9565 23.1633C18.1004 23.1633 19.8343 21.869 20.0151 21.7215C20.204 21.5675 20.3133 21.3368 20.3133 21.0922V14.0405C20.3133 13.9263 20.2893 13.8179 20.2471 13.7196L23.5332 11.9836V17.6841C23.0514 17.9661 22.7248 18.4832 22.7248 19.0812C22.7248 19.9786 23.4524 20.7062 24.3498 20.7062C25.2472 20.7062 25.9748 19.9786 25.9748 19.0812C25.9748 18.4796 25.6437 17.9604 25.1582 17.6797H25.1582ZM18.6882 20.6266C18.0496 20.9337 16.3596 21.5382 12.9565 21.5382C9.53177 21.5382 7.87996 20.8947 7.28236 20.5852V14.5641L12.5587 17.373C12.6771 17.437 12.8097 17.4705 12.9443 17.4705C13.0754 17.4706 13.2045 17.4386 13.3205 17.3774L18.6882 14.5422V20.6266V20.6266ZM12.9508 15.7374L2.49999 10.188L12.9691 4.57733L23.4706 10.1718L12.9508 15.7374Z" fill="#D62222"/>
</g>
<defs>
<clipPath id="clip0_643_3274">
<rect width="26" height="26" fill="white"/>
</clipPath>
</defs>
</svg>
