<svg width="32" height="32" viewBox="0 0 32 32" fill="none" xmlns="http://www.w3.org/2000/svg">
<g clip-path="url(#clip0_613_2)">
<path d="M15.9915 1.99994C19.3875 1.99994 22.989 4.86038 22.989 6.99538V11.9929C22.989 13.9164 22.189 17.5964 20.0435 19.2859C19.7744 19.4977 19.5642 19.775 19.4331 20.0913C19.3019 20.4077 19.2542 20.7524 19.2945 21.0924C19.3765 21.7849 19.813 22.3834 20.446 22.6744L29.149 26.8014C29.217 26.8324 29.983 26.9609 29.983 28.0309L29.984 29.9829L1.99997 29.9844V27.9549C1.99997 27.1599 2.59647 26.9104 2.83497 26.8004L11.6169 22.6559C12.2469 22.3669 12.6815 21.7709 12.766 21.0834C12.851 20.3959 12.5735 19.7134 12.033 19.2799C9.95547 17.6119 8.98747 13.9454 8.98747 11.9929V6.99538C8.98794 4.90641 12.6255 1.99994 15.9915 1.99994ZM15.9915 -0.00012207C11.5755 -0.00012207 6.9875 3.68544 6.9875 6.99541V11.9929C6.9875 14.1764 7.984 18.5944 10.781 20.8394L1.9985 24.9844C1.9985 24.9844 0 25.8749 0 26.9834V29.9844C0 31.0889 0.895 31.9834 1.99847 31.9834H29.9845C31.089 31.9834 31.9835 31.0889 31.9835 29.9844V26.9834C31.9835 25.8084 29.9845 24.9844 29.9845 24.9844L21.2815 20.8574C24.052 18.6769 24.9895 14.3934 24.9895 11.9929V6.99538C24.9895 3.68538 20.407 -9.08203e-05 15.9915 -9.08203e-05V-0.00012207Z" fill="#00B4DD"/>
</g>
<defs>
<clipPath id="clip0_613_2">
<rect width="32" height="32" fill="white"/>
</clipPath>
</defs>
</svg>
