<svg width="26" height="26" viewBox="0 0 26 26" fill="none" xmlns="http://www.w3.org/2000/svg">
<g clip-path="url(#clip0_643_3268)">
<path d="M24.3754 4.86157H17.8855V3.28735C17.8855 1.94307 16.7923 0.849854 15.448 0.849854H10.562C9.21773 0.849854 8.12451 1.94307 8.12451 3.28735V4.86157H1.62532C0.73198 4.86157 0.000324219 5.59323 0.000324219 6.48657V12.1806H-0.000488281V13.8056H0.000324219V23.5255C0.000324219 24.4189 0.73198 25.1505 1.62532 25.1505H24.3753C25.2687 25.1505 26.0003 24.4189 26.0003 23.5255V6.48657C26.0003 5.59323 25.2687 4.86157 24.3753 4.86157H24.3754V4.86157ZM9.74951 3.28735C9.74951 2.83885 10.1135 2.47485 10.562 2.47485H15.448C15.8965 2.47485 16.2605 2.83885 16.2605 3.28735V4.86157H9.74951V3.28735ZM1.62535 6.48657H24.3754V12.1806H15.4285V11.349C15.4285 10.4532 14.6993 9.72398 13.8035 9.72398H12.185C11.2892 9.72398 10.56 10.4532 10.56 11.349V12.1806H1.62537V6.48657H1.62535ZM13.8047 15.4407H12.1845V11.349H13.8031L13.8047 15.4407ZM1.62532 23.5251V13.8052H10.5596V15.4403C10.5596 16.3361 11.2888 17.0653 12.1846 17.0653H13.8031C14.6989 17.0653 15.4281 16.3361 15.4281 15.4403V13.8052H24.3749V23.5251H1.62532V23.5251Z" fill="#00B4DD"/>
</g>
<defs>
<clipPath id="clip0_643_3268">
<rect width="26" height="26" fill="white"/>
</clipPath>
</defs>
</svg>
