<svg width="32" height="32" viewBox="0 0 32 32" fill="none" xmlns="http://www.w3.org/2000/svg">
<g clip-path="url(#clip0_616_12)">
<path d="M0.682495 9.43155L15.5291 17.5165C15.6759 17.5965 15.8404 17.6384 16.0076 17.6385C16.1732 17.6385 16.3363 17.5972 16.4821 17.5185L31.4851 9.43355C31.8121 9.25758 32.0155 8.91405 32.0105 8.54205C32.0081 8.35946 31.9559 8.181 31.8595 8.02592C31.7631 7.87084 31.6262 7.74502 31.4635 7.66205L16.616 0.122047C16.3331 -0.0214531 15.999 -0.0224531 15.7135 0.120047L0.712026 7.66005C0.380026 7.82702 0.167026 8.16505 0.161026 8.53705C0.155026 8.90905 0.356526 9.25405 0.682495 9.43155V9.43155ZM16.161 2.13402L28.8535 8.57998L16.0105 15.501L3.3175 8.58898L16.161 2.13402ZM31.2919 15.01L28.3239 13.503L26.1814 14.6585L28.6814 15.928L15.8389 22.8485L3.14546 15.9365L5.81143 14.5965L3.67493 13.4325L0.539932 15.0075C0.207933 15.1745 -0.00506752 15.5125 -0.0110988 15.8845C-0.01713 16.2565 0.184401 16.6015 0.510401 16.779L15.3569 24.864C15.5037 24.9439 15.6682 24.9858 15.8354 24.986C16.0011 24.9859 16.1641 24.9447 16.3099 24.866L31.3129 16.781C31.6399 16.605 31.8434 16.2615 31.8384 15.8895C31.8362 15.7069 31.7842 15.5285 31.6878 15.3735C31.5915 15.2184 31.4546 15.0927 31.2919 15.01H31.2919ZM31.2922 22.01L28.4807 20.628L26.3382 21.7835L28.6822 22.928L15.8392 29.8485L3.14575 22.9365L5.62424 21.8155L3.48775 20.6515L0.540245 22.008C0.208182 22.175 -0.00481752 22.513 -0.0108175 22.885C-0.0168175 23.257 0.184651 23.602 0.510651 23.7795L15.3572 31.8645C15.504 31.9444 15.6685 31.9863 15.8357 31.9865C16.0013 31.9864 16.1644 31.9451 16.3102 31.8665L31.3132 23.7815C31.6402 23.6055 31.8436 23.262 31.8386 22.89C31.8366 22.7074 31.7846 22.5288 31.6882 22.3737C31.5919 22.2186 31.4549 22.0928 31.2922 22.01H31.2922Z" fill="#00B4DD"/>
</g>
<defs>
<clipPath id="clip0_616_12">
<rect width="32" height="32" fill="white"/>
</clipPath>
</defs>
</svg>
