<svg width="20" height="20" viewBox="0 0 20 20" fill="none" xmlns="http://www.w3.org/2000/svg">
<g clip-path="url(#clip0_635_3236)">
<path d="M10.0716 -0.00720215C5.97187 -0.00720215 2.5 3.48436 2.5 7.62061C2.5 11.9519 6.52406 16.3812 9.23094 19.4944C9.24125 19.5069 9.67877 19.9928 10.2178 19.9928H10.2656C10.8047 19.9928 11.2391 19.5069 11.25 19.4944C13.7903 16.574 17.5 11.759 17.5 7.62061C17.5 3.48436 14.7919 -0.00720215 10.0716 -0.00720215ZM10.3222 18.6559C10.3003 18.6778 10.2684 18.7022 10.2403 18.7225C10.2115 18.7028 10.1803 18.6778 10.1572 18.6559L9.83029 18.28C7.26406 15.3359 3.75 11.3044 3.75 7.62061C3.75 4.16342 6.645 1.24249 10.0716 1.24249C14.3397 1.24249 16.25 4.44561 16.25 7.62061C16.25 10.4172 14.2553 14.1303 10.3222 18.6559ZM10.0219 3.77749C7.95092 3.77749 6.27186 5.45655 6.27186 7.52749C6.27186 9.59842 7.95092 11.2775 10.0219 11.2775C12.0928 11.2775 13.7719 9.59842 13.7719 7.52749C13.7719 5.45655 12.0928 3.77749 10.0219 3.77749ZM10.0219 10.0275C8.64342 10.0275 7.49309 8.87874 7.49309 7.49999C7.49309 6.12155 8.61465 4.99999 9.99309 4.99999C11.3725 4.99999 12.4931 6.12155 12.4931 7.49999C12.4937 8.87874 11.4012 10.0275 10.0219 10.0275V10.0275Z" fill="#00B4DD"/>
</g>
<defs>
<clipPath id="clip0_635_3236">
<rect width="20" height="20" fill="white"/>
</clipPath>
</defs>
</svg>
