<svg width="32" height="32" viewBox="0 0 32 32" fill="none" xmlns="http://www.w3.org/2000/svg">
<g clip-path="url(#clip0_614_16)">
<path d="M32.0431 20.3686C32.0126 19.9361 30.3866 10.39 30.1322 8.8615C30.1076 8.715 30.0881 8.559 30.0667 8.3945C29.8702 6.85847 29.5032 4 24.8956 4C24.3431 4 23.8956 4.4475 23.8956 5C23.8956 5.5525 24.3431 6 24.8956 6C27.7431 6 27.8936 7.169 28.0831 8.6495C28.1077 8.839 28.1312 9.0205 28.1592 9.1895C28.2762 9.8935 28.8062 12.6945 29.2637 15.4715C28.0902 14.577 26.6297 14.04 25.0412 14.04C22.4897 14.04 20.2187 15.4135 18.9702 17.4575C18.3697 17.2305 17.3507 16.947 15.9892 16.947C14.6471 16.947 13.6606 17.2325 13.0507 17.481C11.8367 15.424 9.60366 14.0395 7.04219 14.0395C5.37769 14.0395 3.83172 14.6245 2.60969 15.597C3.07319 12.785 3.62219 9.9085 3.74119 9.19C3.76969 9.021 3.79319 8.83953 3.81716 8.65C4.00669 7.1695 4.15719 6.0005 7.00469 6.0005C7.55719 6.0005 8.00469 5.553 8.00469 5.0005C8.00469 4.448 7.55719 4.0005 7.00469 4.0005C2.39719 4.0005 2.03016 6.859 1.83366 8.395C1.81216 8.559 1.79266 8.7155 1.76813 8.862C1.51313 10.3905 -0.0133423 19.8735 -0.0433423 20.3065C-0.0503423 20.403 -0.0388423 20.4955 -0.0198111 20.586C-0.0293111 20.7305 -0.0423111 20.874 -0.0423111 21.0205C-0.0423111 24.875 3.18719 28 7.04169 28C10.8962 28 14.0212 24.875 14.0212 21.0205C14.0212 20.4375 13.9417 19.8745 13.8072 19.3335C14.2172 19.1685 14.9582 18.9481 15.9887 18.9481C16.9942 18.9481 17.7532 19.149 18.1857 19.3021C18.0417 19.853 17.9567 20.426 17.9567 21.0206C17.9567 24.8751 21.1862 28.0001 25.0407 28.0001C28.8952 28.0001 32.0202 24.8751 32.0202 21.0206C32.0202 20.9161 32.0092 20.8141 32.0047 20.7106C32.0352 20.6016 32.0522 20.4875 32.0432 20.3686H32.0431ZM7.042 25.9995C4.286 25.9995 1.958 23.719 1.958 21.02C1.958 18.321 4.286 16.0405 7.042 16.0405C9.788 16.0405 12.0215 18.274 12.0215 21.02C12.0215 23.766 9.788 25.9995 7.042 25.9995ZM25.041 25.9995C22.285 25.9995 19.957 23.7189 19.957 21.0199C19.957 18.3209 22.285 16.0404 25.041 16.0404C27.416 16.0404 29.4045 17.7119 29.899 19.9399C29.9195 20.1439 29.9365 20.3359 29.9495 20.5114C29.9555 20.5955 29.978 20.6745 30.007 20.751C30.012 20.841 30.0205 20.9295 30.0205 21.0205C30.0205 23.766 27.787 25.9995 25.041 25.9995V25.9995Z" fill="#D62222"/>
</g>
<defs>
<clipPath id="clip0_614_16">
<rect width="32" height="32" fill="white"/>
</clipPath>
</defs>
</svg>
