<svg width="32" height="32" viewBox="0 0 32 32" fill="none" xmlns="http://www.w3.org/2000/svg">
<path d="M16 3.99997C23.7195 3.99997 30 8.486 30 14C30 19.5135 23.7195 24 16 24L15.1715 24.003C14.622 24.003 14.2625 23.9885 13.7005 23.9045L12.58 23.7445L11.861 24.6145C11.5305 25.014 9.844 26.3995 7.9825 27.2915C8.361 26.2905 8.64 25.1975 8.665 24.1165L8.675 24.057V22.6625L7.5855 22.106C4.0355 20.29 2 17.336 2 14C2 8.48597 8.2805 3.99997 16 3.99997ZM16 2C7.1625 2 0 7.37297 0 14C0 18.127 2.4455 21.7235 6.6745 23.8855C6.6745 23.911 6.6665 23.9295 6.6665 23.958C6.6665 25.751 5.6615 27.7225 5.0725 28.7375H5.074C5.0275 28.8465 5 28.966 5 29.094C5 29.5965 5.405 30 5.9065 30C5.982 30 6.102 29.9845 6.146 29.9845C6.1565 29.9845 6.1625 29.9845 6.1615 29.9875C9.2865 29.477 12.7225 26.716 13.406 25.883C14.1085 25.9875 14.583 26.003 15.171 26.003C15.419 26.003 15.6865 26 16 26C24.836 26 32 20.628 32 14C32 7.373 24.836 2 16 2.00003V2Z" fill="#00C382"/>
</svg>
