<svg width="32" height="32" viewBox="0 0 32 32" fill="none" xmlns="http://www.w3.org/2000/svg">
<g clip-path="url(#clip0_615_6)">
<path d="M6.55255 27.602C5.92405 28.9085 5.52749 29.7791 2.03102 29.9061C2.13152 26.5321 2.77452 26.1701 4.06202 25.5286C4.60252 25.2591 5.27552 24.9241 6.00305 24.3646L4.78555 22.8101C4.21056 23.2516 3.68152 23.4841 3.17002 23.7386C1.02505 24.8081 0.0141171 25.8616 0.0141171 30.8841L0.0310859 31.9061L1.01409 31.8841C6.31509 31.8841 7.30559 30.6866 8.29859 28.6241C8.51609 28.1721 8.63709 27.8666 9.00359 27.2575L7.52059 25.9105C7.07609 26.517 6.79859 27.094 6.55259 27.602H6.55255ZM22.03 5.89555C19.8185 5.89555 18.019 7.69502 18.019 9.90602C18.019 12.118 19.819 13.9171 22.03 13.9171C24.241 13.9171 26.0405 12.1176 26.0405 9.90605C26.0405 7.69505 24.2405 5.89555 22.03 5.89555ZM22.03 11.9085C20.926 11.9085 20.0275 11.01 20.0275 9.90602C20.0275 8.80249 20.926 7.90352 22.03 7.90352C23.134 7.90352 24.0325 8.80249 24.0325 9.90602C24.032 11.0105 23.134 11.9085 22.03 11.9085ZM31.9932 0.916022C31.9627 0.417022 31.5672 0.0169278 31.0682 -0.0200722C31.0682 -0.0200722 25.4717 -0.428072 20.0877 1.58243C18.1207 2.31693 16.5017 3.48046 14.9907 5.24296C13.7307 6.71249 12.4787 9.36896 11.3737 11.5745C10.9467 12.426 10.5387 13.2405 10.1927 13.8625H4.62974C4.48836 13.8625 4.34859 13.8925 4.21966 13.9505C4.09072 14.0085 3.97555 14.0932 3.88174 14.199L0.216211 18.172C0.100991 18.3019 0.0215845 18.4595 -0.0141912 18.6294C-0.049967 18.7993 -0.0408784 18.9756 0.0121796 19.141C0.11968 19.478 0.39718 19.733 0.741211 19.811L6.70821 21.1755C7.11468 21.6775 7.79218 22.4285 8.87621 23.6315L11.1367 26.1375L12.3537 31.285C12.3932 31.452 12.4749 31.6059 12.5911 31.7321C12.7073 31.8583 12.8541 31.9525 13.0172 32.0055C13.1182 32.0375 13.2227 32.0545 13.3267 32.0545C13.5655 32.0546 13.7965 31.9691 13.9777 31.8135L17.6827 28.128C17.7923 28.0342 17.8802 27.9178 17.9406 27.7868C18.0009 27.6558 18.0321 27.5133 18.0322 27.369V22.209C18.5302 21.8995 19.4131 21.423 20.2441 20.958C22.5086 19.6925 25.8886 18.117 27.2901 16.871C29.2637 15.117 29.9826 13.831 30.6886 11.93C32.3671 7.40852 32.0101 1.17905 31.9931 0.916053L31.9932 0.916022ZM28.8126 11.2334C28.1966 12.8919 27.6386 13.8844 25.9611 15.3759C24.7216 16.4769 21.3321 18.0579 19.2676 19.2124C17.7266 20.0739 16.8036 20.5769 16.3991 20.9079C16.2842 21.0016 16.1915 21.1197 16.128 21.2537C16.0644 21.3877 16.0315 21.5341 16.0316 21.6824V26.9089L13.9216 29.2274L13.0231 25.4274C12.9843 25.2638 12.9048 25.1126 12.7921 24.9879C10.9531 22.9499 8.17509 19.8689 7.96205 19.6244C7.82151 19.4539 7.62847 19.3347 7.41305 19.2854L2.83205 18.2374L5.07905 15.8624H10.7676C10.9385 15.8625 11.1065 15.8187 11.2557 15.7353C11.4048 15.6518 11.5301 15.5316 11.6196 15.3859C12.0596 14.6694 12.5701 13.6504 13.1616 12.4704C14.1631 10.4719 15.4091 7.82843 16.5091 6.54443C17.8086 5.02793 19.1286 4.0754 20.7871 3.45543C24.4776 2.07643 28.2861 1.93143 30.0271 1.9444C30.0596 3.7884 29.9901 8.0639 28.8126 11.2334V11.2334Z" fill="#00B4DD"/>
</g>
<defs>
<clipPath id="clip0_615_6">
<rect width="32" height="32" fill="white"/>
</clipPath>
</defs>
</svg>
