<svg width="32" height="32" viewBox="0 0 32 32" fill="none" xmlns="http://www.w3.org/2000/svg">
<g clip-path="url(#clip0_614_22)">
<path d="M15.9915 2.00006C19.3875 2.00006 22.989 4.8605 22.989 6.9955V11.993C22.989 13.9165 22.189 17.5965 20.0435 19.286C19.7744 19.4978 19.5642 19.7751 19.4331 20.0915C19.3019 20.4078 19.2542 20.7525 19.2945 21.0925C19.3765 21.785 19.813 22.3835 20.446 22.6746L29.149 26.8016C29.217 26.8326 29.983 26.9611 29.983 28.0311L29.984 29.9831L1.99997 29.9846V27.9551C1.99997 27.1601 2.59647 26.9105 2.83497 26.8005L11.6169 22.656C12.2469 22.367 12.6815 21.771 12.766 21.0835C12.851 20.396 12.5735 19.7135 12.033 19.28C9.95547 17.612 8.98747 13.9455 8.98747 11.993V6.9955C8.98794 4.90653 12.6255 2.00006 15.9915 2.00006ZM15.9915 0C11.5755 0 6.9875 3.68556 6.9875 6.99553V11.993C6.9875 14.1765 7.984 18.5945 10.781 20.8395L1.9985 24.9845C1.9985 24.9845 0 25.875 0 26.9835V29.9845C0 31.089 0.895 31.9835 1.99847 31.9835H29.9845C31.089 31.9835 31.9835 31.089 31.9835 29.9845V26.9835C31.9835 25.8085 29.9845 24.9845 29.9845 24.9845L21.2815 20.8575C24.052 18.677 24.9895 14.3935 24.9895 11.993V6.9955C24.9895 3.6855 20.407 3.125e-05 15.9915 3.125e-05V0Z" fill="#00C382"/>
</g>
<defs>
<clipPath id="clip0_614_22">
<rect width="32" height="32" fill="white"/>
</clipPath>
</defs>
</svg>
